<?xml version="1.0" encoding="UTF-8"?>
<svg version="1.1" xmlns="http://www.w3.org/2000/svg" width="1024" height="1024">
<path d="M0 0 C2.73400004 -0.002639 5.46799221 -0.00826382 8.20198786 -0.01373065 C14.12976744 -0.02399057 20.05751439 -0.02688145 25.98530197 -0.02481842 C34.80090688 -0.02175792 43.61647591 -0.03011562 52.43207382 -0.04056767 C69.09746094 -0.05987554 85.76283572 -0.06553472 102.42823271 -0.06668179 C115.30380751 -0.0676022 128.17937749 -0.07172576 141.05495071 -0.07808304 C144.76625176 -0.07987824 148.47755281 -0.08165787 152.18885386 -0.08343279 C153.11160075 -0.08387489 154.03434764 -0.08431699 154.98505655 -0.08477248 C180.92924305 -0.09707542 206.87342788 -0.10497418 232.81761742 -0.10408592 C233.79511593 -0.10405476 234.77261444 -0.10402361 235.77973412 -0.10399151 C240.73366138 -0.1038253 245.68758864 -0.10362722 250.6415159 -0.10342209 C251.6253128 -0.1033822 252.60910971 -0.10334231 253.62271865 -0.10330121 C255.61219571 -0.10322034 257.60167278 -0.10313674 259.59114985 -0.10305043 C290.52844692 -0.10182554 321.46570011 -0.11682888 352.40298462 -0.14419556 C387.19411554 -0.17495891 421.98521764 -0.19212546 456.77636302 -0.19026911 C460.49080761 -0.19011986 464.20525221 -0.19002244 467.91969681 -0.18996048 C469.29149007 -0.18992552 469.29149007 -0.18992552 470.69099632 -0.18988985 C485.3682461 -0.18982846 500.04545761 -0.20256613 514.72269603 -0.21982501 C529.49125025 -0.23683126 544.25974885 -0.23871645 559.02830748 -0.22560637 C567.78591009 -0.2182501 576.54334301 -0.2217749 585.30092741 -0.24149105 C591.16987765 -0.25357988 597.03870633 -0.25080234 602.90765122 -0.23655005 C606.23912509 -0.22886096 609.57001068 -0.22929279 612.90150099 -0.24346475 C669.92817325 -0.4697885 720.67333722 20.13722729 761.34390259 60.14242554 C767.89770842 66.73248531 773.70323772 73.74869956 779.15640259 81.26742554 C779.56809692 81.82945679 779.97979126 82.39148804 780.40396118 82.97055054 C807.28415769 120.10248139 817.48244259 161.96357011 817.42382812 207.11102295 C817.42646712 209.84502299 817.43209195 212.57901516 817.43755877 215.31301081 C817.44781869 221.24079039 817.45070957 227.16853734 817.44864655 233.09632492 C817.44558605 241.91192983 817.45394375 250.72749886 817.4643958 259.54309677 C817.48370366 276.20848389 817.48936284 292.87385867 817.49050991 309.53925566 C817.49143032 322.41483046 817.49555389 335.29040044 817.50191116 348.16597366 C817.50370636 351.87727471 817.50548599 355.58857576 817.50726092 359.29987681 C817.50770301 360.2226237 817.50814511 361.14537059 817.5086006 362.0960795 C817.52090354 388.040266 817.5288023 413.98445082 817.52791405 439.92864037 C817.52788289 440.90613888 817.52785173 441.88363739 817.52781963 442.89075707 C817.52765343 447.84468433 817.52745534 452.79861159 817.52725022 457.75253884 C817.52719038 459.22823421 817.52719038 459.22823421 817.52712934 460.73374159 C817.52704846 462.72321866 817.52696486 464.71269573 817.52687855 466.7021728 C817.52565367 497.63946987 817.54065701 528.57672306 817.56802368 559.51400757 C817.59878703 594.30513849 817.61595358 629.09624059 817.61409724 663.88738596 C817.61394799 667.60183056 817.61385057 671.31627516 817.6137886 675.03071976 C817.61375364 676.40251301 817.61375364 676.40251301 817.61371797 677.80201927 C817.61365659 692.47926905 817.62639425 707.15648055 817.64365313 721.83371898 C817.66065938 736.6022732 817.66254458 751.3707718 817.64943449 766.13933043 C817.64207823 774.89693304 817.64560302 783.65436596 817.66531917 792.41195036 C817.67740801 798.2809006 817.67463047 804.14972927 817.66037818 810.01867417 C817.65268908 813.35014804 817.65312091 816.68103362 817.66729288 820.01252393 C817.89361662 877.0391962 797.28660083 927.78436017 757.28140259 968.45492554 C750.69134282 975.00873137 743.67512857 980.81426067 736.15640259 986.26742554 C735.59437134 986.67911987 735.03234009 987.09081421 734.45327759 987.51498413 C697.32134673 1014.39518064 655.46025801 1024.59346554 610.31280518 1024.53485107 C607.57880514 1024.53749007 604.84481297 1024.5431149 602.11081731 1024.54858172 C596.18303774 1024.55884164 590.25529079 1024.56173252 584.3275032 1024.55966949 C575.51189829 1024.55660899 566.69632927 1024.5649667 557.88073135 1024.57541875 C541.21534423 1024.59472661 524.54996945 1024.60038579 507.88457246 1024.60153286 C495.00899767 1024.60245327 482.13342769 1024.60657684 469.25785446 1024.61293411 C465.54655342 1024.61472931 461.83525237 1024.61650894 458.12395132 1024.61828387 C457.20120443 1024.61872596 456.27845754 1024.61916806 455.32774862 1024.61962355 C429.38356213 1024.63192649 403.4393773 1024.63982525 377.49518776 1024.638937 C376.51768925 1024.63890584 375.54019074 1024.63887468 374.53307106 1024.63884258 C369.5791438 1024.63867637 364.62521654 1024.63847829 359.67128928 1024.63827316 C358.68749237 1024.63823327 357.70369547 1024.63819338 356.69008653 1024.63815228 C354.70060946 1024.63807141 352.71113239 1024.63798781 350.72165532 1024.6379015 C319.78435826 1024.63667662 288.84710507 1024.65167996 257.90982056 1024.67904663 C223.11868963 1024.70980998 188.32758754 1024.72697653 153.53644216 1024.72512019 C149.82199756 1024.72497094 146.10755297 1024.72487352 142.39310837 1024.72481155 C141.02131511 1024.72477659 141.02131511 1024.72477659 139.62180886 1024.72474092 C124.94455907 1024.72467954 110.26734757 1024.7374172 95.59010915 1024.75467608 C80.82155492 1024.77168233 66.05305632 1024.77356752 51.28449769 1024.76045744 C42.52689509 1024.75310117 33.76946217 1024.75662597 25.01187776 1024.77634212 C19.14292753 1024.78843096 13.27409885 1024.78565342 7.40515396 1024.77140112 C4.07368009 1024.76371203 0.7427945 1024.76414386 -2.58869581 1024.77831583 C-59.61536808 1025.00463957 -110.36053205 1004.39762378 -151.03109741 964.39242554 C-157.58490324 957.80236577 -163.39043254 950.78615152 -168.84359741 943.26742554 C-169.25529175 942.70539429 -169.66698608 942.14336304 -170.09115601 941.56430054 C-196.97135251 904.43236968 -207.16963742 862.57128096 -207.11102295 817.42382812 C-207.11366195 814.68982808 -207.11928677 811.95583592 -207.12475359 809.22184026 C-207.13501352 803.29406068 -207.1379044 797.36631374 -207.13584137 791.43852615 C-207.13278087 782.62292124 -207.14113857 773.80735222 -207.15159062 764.9917543 C-207.17089849 748.32636718 -207.17655767 731.6609924 -207.17770474 714.99559541 C-207.17862515 702.12002062 -207.18274871 689.24445064 -207.18910599 676.36887741 C-207.19090119 672.65757637 -207.19268082 668.94627532 -207.19445574 665.23497427 C-207.19489784 664.31222738 -207.19533994 663.38948049 -207.19579543 662.43877157 C-207.20809837 636.49458508 -207.21599713 610.55040025 -207.21510887 584.60621071 C-207.21507771 583.6287122 -207.21504656 582.65121369 -207.21501445 581.64409401 C-207.21484825 576.69016675 -207.21465017 571.73623949 -207.21444504 566.78231223 C-207.21440515 565.79851532 -207.21436526 564.81471841 -207.21432416 563.80110948 C-207.21424328 561.81163241 -207.21415969 559.82215534 -207.21407338 557.83267827 C-207.21284849 526.89538121 -207.22785183 495.95812802 -207.25521851 465.02084351 C-207.28598185 430.22971258 -207.3031484 395.43861049 -207.30129206 360.64746511 C-207.30114281 356.93302051 -207.30104539 353.21857592 -207.30098343 349.50413132 C-207.30096012 348.58960248 -207.30093681 347.67507364 -207.3009128 346.73283181 C-207.30085141 332.05558202 -207.31358908 317.37837052 -207.33084796 302.70113209 C-207.34785421 287.93257787 -207.3497394 273.16407927 -207.33662932 258.39552064 C-207.32927305 249.63791804 -207.33279785 240.88048512 -207.352514 232.12290071 C-207.36460283 226.25395047 -207.36182529 220.3851218 -207.347573 214.51617691 C-207.33988391 211.18470304 -207.34031574 207.85381745 -207.3544877 204.52232714 C-207.58081145 147.49565487 -186.97379565 96.7504909 -146.96859741 56.07992554 C-140.37853764 49.52611971 -133.36232339 43.72059041 -125.84359741 38.26742554 C-125.28156616 37.8557312 -124.71953491 37.44403687 -124.14047241 37.01986694 C-87.00854156 10.13967044 -45.14745284 -0.05861447 0 0 Z " fill="#FEFEFE" transform="translate(206.84359741210938,-0.267425537109375)"/>
<path d="M0 0 C58.08 0 116.16 0 176 0 C182.93 19.14 189.86 38.28 197 58 C204.77871177 79.08687435 204.77871177 79.08687435 212.5625 100.171875 C219.58431262 119.22967275 226.42915672 138.35156038 233.27490234 157.47314453 C233.96702796 159.40588803 234.65918394 161.33862065 235.35136795 163.27134323 C236.01329298 165.12010381 236.67466533 166.96906223 237.33602905 168.81802368 C240.18173125 176.76058972 243.07084289 184.6858393 246.05258179 192.57846069 C248 197.78539808 248 197.78539808 248 200 C168.8 200.495 168.8 200.495 88 201 C79.66572702 223.70270883 79.66572702 223.70270883 71.609375 246.484375 C69.74643491 251.78168387 67.68850024 256.99785567 65.62182617 262.21826172 C63.45688515 267.72386307 61.48260712 273.27980241 59.5625 278.875 C56.91019516 286.59236117 53.98118852 294.16068549 50.90820312 301.71923828 C48.55864487 307.52610107 46.40198148 313.37245602 44.35693359 319.29248047 C42.20083359 325.5076293 39.88952358 331.65956018 37.5625 337.8125 C34.4784551 345.97769301 31.51200635 354.17088316 28.66430664 362.42114258 C26.06540357 369.90797972 23.28570501 377.322994 20.45898438 384.7265625 C18.10322275 390.93283618 15.87406326 397.1766295 13.69140625 403.4453125 C10.03178163 413.95571135 6.24918694 424.41893916 2.4375 434.875 C1.74158483 436.78709736 1.0457033 438.69920697 0.34985352 440.61132812 C-4.54727272 454.05865415 -9.49186641 467.48816415 -14.45397949 480.91162109 C-17.92017568 490.29181855 -21.33580774 499.68305178 -24.59204102 509.13867188 C-27.1417949 516.50624182 -29.90786996 523.78967832 -32.6652832 531.08154297 C-35.03161196 537.35918806 -37.3111354 543.65842967 -39.5 550 C-42.40541926 558.41756982 -45.51431753 566.74926917 -48.6640625 575.078125 C-51.32998583 582.15098282 -53.86470186 589.25922399 -56.3293457 596.40429688 C-59.01121299 604.13352039 -61.88976092 611.78564925 -64.8046875 619.4296875 C-67.39101933 626.24565224 -69.68962413 633.06887239 -72 640 C-124.8 640 -177.6 640 -232 640 C-223.98159403 615.94478208 -223.98159403 615.94478208 -220.53125 606.73046875 C-219.71620756 604.53296627 -218.9011857 602.33545616 -218.08618164 600.13793945 C-217.66563507 599.00796539 -217.2450885 597.87799133 -216.8117981 596.71377563 C-214.49931301 590.49752953 -212.19938076 584.27665497 -209.90234375 578.0546875 C-209.66286955 577.40618898 -209.42339535 576.75769047 -209.17666435 576.08954048 C-203.373527 560.36591468 -197.71372064 544.59122312 -192.0625 528.8125 C-190.13755065 523.43850371 -188.21214653 518.06467109 -186.28515625 512.69140625 C-186.0552512 512.05031103 -185.82534615 511.40921581 -185.58847427 510.74869347 C-180.90715354 497.70003791 -176.1277023 484.68899031 -171.31005859 471.69018555 C-168.25466832 463.44157431 -165.27054297 455.17363602 -162.40625 446.85644531 C-159.89781978 439.60810063 -157.1933219 432.43540067 -154.45776367 425.27001953 C-152.14084969 419.16653544 -149.95287266 413.02630095 -147.8125 406.859375 C-143.96146818 395.78240042 -139.89105104 384.78970992 -135.8137207 373.79443359 C-127.57854696 351.57583995 -119.48650604 329.30908758 -111.5 307 C-103.78764522 285.45752693 -95.96258758 263.96166395 -88.01794434 242.50344849 C-80.46619404 222.09673036 -73.10053863 201.62862861 -65.83325195 181.11914062 C-61.6762663 169.40089714 -57.44386273 157.71834853 -53.03668213 146.09153748 C-50.76499071 140.09140365 -48.59093241 134.06543572 -46.5 128 C-43.62982982 119.70192077 -40.59091722 111.47639856 -37.45898438 103.2734375 C-35.16485508 97.22953473 -32.99720964 91.15000737 -30.87890625 85.04296875 C-26.47255484 72.36276879 -21.79479734 59.78305875 -17.13427734 47.19458008 C-15.51148905 42.81123215 -13.88985254 38.42746114 -12.27003479 34.04301453 C-11.41524396 31.72942363 -10.55934335 29.41624227 -9.70201111 27.10359192 C-6.37427718 18.09865173 -3.19630583 9.05619986 0 0 Z " fill="#0A0A0A" transform="translate(424,192)"/>
<path d="M0 0 C0.9724916 0.00092179 1.9449832 0.00184359 2.94694424 0.00279331 C4.05898724 0.00141865 5.17103024 0.00004398 6.31677151 -0.00137234 C7.54747372 0.00222294 8.77817593 0.00581821 10.04617214 0.00952244 C11.33378948 0.00937641 12.62140682 0.00923038 13.94804287 0.00907993 C17.48920685 0.00879197 21.03033724 0.01468847 24.57149339 0.02165389 C28.26840913 0.02788766 31.96532556 0.02849125 35.66224575 0.0296793 C42.66749824 0.03279255 49.6727352 0.04100584 56.67798084 0.05102879 C64.65124801 0.06219013 72.6245159 0.06770043 80.59778893 0.07272422 C97.00368814 0.08318846 113.40957172 0.10078778 129.81545925 0.12304783 C130.45383532 1.54865206 131.09105644 2.9747735 131.72779751 4.40110874 C132.26026419 5.59228133 132.26026419 5.59228133 132.80348778 6.80751801 C134.15805987 9.90696513 135.35830163 13.05089529 136.5381155 16.22070408 C136.79107388 16.89758778 137.04403225 17.57447147 137.30465603 18.2718668 C137.86447342 19.77089289 138.42300245 21.27040061 138.98040676 22.77032566 C140.26307083 26.2218438 141.55196886 29.67102721 142.84016323 33.12048435 C143.57903193 35.09928252 144.3175536 37.07821029 145.05576992 39.05725193 C148.32306888 47.81416232 151.60678641 56.56485026 154.89358425 65.31445408 C166.44288469 96.06385472 177.95324801 126.82711968 189.37795925 157.62304783 C198.25192119 181.54238696 207.16165864 205.44766759 216.13642788 229.32940769 C219.45384866 238.1576207 222.76603031 246.98779317 226.077178 255.81836033 C226.35368065 256.55573681 226.6301833 257.29311329 226.91506481 258.05283451 C229.78519082 265.70689271 232.65495205 273.36108749 235.52388859 281.01559162 C236.96337361 284.85615526 238.40304396 288.69664941 239.842803 292.53711033 C240.12898621 293.30050472 240.41516941 294.06389912 240.71002483 294.85042667 C244.80274466 305.76677929 248.9050682 316.67948445 253.0135107 327.58992863 C254.70365736 332.07935981 256.39211382 336.56942696 258.08049679 341.05952168 C259.67979483 345.31206602 261.28196103 349.56351538 262.88623428 353.81418514 C263.63314682 355.79474393 264.37857064 357.77585499 265.12330532 359.75723362 C266.02821256 362.16474237 266.93552363 364.57134944 267.84562588 366.97689915 C268.24003368 368.02850224 268.63444149 369.08010532 269.04080105 370.16357517 C269.38572094 371.07892033 269.73064083 371.99426548 270.08601284 372.93734837 C270.81545925 375.12304783 270.81545925 375.12304783 270.81545925 377.12304783 C222.63545925 377.12304783 174.45545925 377.12304783 124.81545925 377.12304783 C122.51274553 371.36626351 120.30858007 365.84610637 118.3974905 359.99414158 C117.95227418 358.64124534 117.50695644 357.28838248 117.061553 355.93554783 C116.82936062 355.22656345 116.59716824 354.51757908 116.35793972 353.78711033 C111.18375081 338.00496891 105.78328596 322.3055192 100.31545925 306.62304783 C94.06402671 288.68043176 87.9376362 270.70323463 81.97791958 252.66175938 C79.35125891 244.71044623 76.70013589 236.7673113 74.0497427 228.82388401 C73.27754654 226.50924755 72.5057521 224.19447765 71.73416042 221.87963963 C71.49526592 221.16312733 71.25637142 220.44661503 71.01023769 219.70839024 C70.55222442 218.33369023 70.0947565 216.95880838 69.63789272 215.58372593 C68.70925103 212.7904431 67.77314863 210.00056323 66.81204128 207.21826267 C64.81545925 201.42432848 64.81545925 201.42432848 64.81545925 198.12304783 C64.15545925 198.12304783 63.49545925 198.12304783 62.81545925 198.12304783 C62.65110378 198.76483982 62.48674831 199.40663181 62.31741238 200.06787205 C60.3335386 207.59610851 57.89820248 214.90665735 55.31545925 222.24804783 C54.41032203 224.84082962 53.50882291 227.43486574 52.608428 230.02929783 C52.37685497 230.69611576 52.14528194 231.36293369 51.90669155 232.04995823 C49.64081345 238.59289947 47.4635409 245.16417678 45.29189968 251.73886204 C40.84861551 265.1849229 36.24810467 278.57103038 31.56545925 291.93554783 C26.22998783 307.16383674 20.95535669 322.41124993 15.75295925 337.68554783 C15.29161587 339.03901814 15.29161587 339.03901814 14.82095242 340.41983128 C13.93149323 343.03023055 13.04305807 345.6409748 12.155303 348.25195408 C11.87530453 349.07524708 11.59530605 349.89854008 11.30682278 350.74678135 C9.88208237 354.94578757 8.47291003 359.14934944 7.08547878 363.3608408 C6.80918133 364.19792072 6.53288387 365.03500065 6.24821377 365.89744663 C5.72385633 367.48937076 5.2021147 369.08215959 4.68336391 370.67591953 C2.92574494 376.01276214 2.92574494 376.01276214 1.81545925 377.12304783 C-0.08282311 377.21961613 -1.98474738 377.24491999 -3.88548374 377.24330235 C-5.12373905 377.24467701 -6.36199436 377.24605167 -7.63777256 377.24746799 C-9.0225842 377.24392839 -10.4073956 377.24029357 -11.79220676 377.23657322 C-13.24061169 377.23629135 -14.68901676 377.23644907 -16.13742161 377.23701572 C-20.08146389 377.23730372 -24.02547602 377.23140663 -27.96951127 377.22444177 C-32.08683544 377.21820861 -36.20416022 377.21760446 -40.32148838 377.21641636 C-48.12359937 377.21330293 -55.92569642 377.20508939 -63.72780126 377.19506687 C-72.60794379 377.18390609 -81.48808697 377.17839537 -90.36823475 377.17337143 C-108.64034467 377.16290678 -126.91244159 377.14530712 -145.18454075 377.12304783 C-144.09234904 373.98730608 -142.99821845 370.852244 -141.90377903 367.71728611 C-141.4470657 366.40592434 -141.4470657 366.40592434 -140.98112583 365.06807041 C-138.38317587 357.63121041 -135.67593552 350.23815518 -132.89547825 342.86767673 C-132.4464011 341.67625065 -132.4464011 341.67625065 -131.98825169 340.46075535 C-131.52853977 339.24171513 -131.52853977 339.24171513 -131.05954075 337.99804783 C-130.40842433 336.26679339 -129.75738416 334.53551027 -129.10641575 332.80420017 C-121.36302556 312.22908964 -113.54749366 291.67975386 -105.54579258 271.20356846 C-103.86721197 266.90017639 -102.22098395 262.58622952 -100.6025095 258.25976658 C-100.35148472 257.5892577 -100.10045994 256.91874882 -99.84182835 256.22792149 C-98.95546427 253.85985486 -98.06993423 251.49147752 -97.18454075 249.12304783 C-85.89541884 218.9278487 -74.56508804 188.75215333 -62.99444675 158.6634531 C-59.641688 149.94282564 -56.32176157 141.21138313 -53.05584812 132.45782566 C-41.83632388 102.39369756 -30.56461627 72.35147321 -19.04684544 42.40014744 C-18.35443662 40.59945757 -17.66205301 38.798758 -16.969697 36.99804783 C-16.64296497 36.14844486 -16.31623295 35.2988419 -15.97959995 34.42349339 C-13.4298209 27.78397492 -10.92389281 21.12880852 -8.43942356 14.46460056 C-3.07239421 0.17305763 -3.07239421 0.17305763 0 0 Z " fill="#0A0A0A" transform="translate(561.1845407485962,454.8769521713257)"/>
</svg>
